<mxfile host="Electron" modified="2024-01-26T08:08:39.410Z" agent="Mozilla/5.0 (Windows NT 10.0; Win64; x64) AppleWebKit/537.36 (KHTML, like Gecko) draw.io/22.0.2 Chrome/114.0.5735.289 Electron/25.8.4 Safari/537.36" etag="obZRf4iC-FZPFkYI0LSA" version="22.0.2" type="device">
  <diagram name="第 1 页" id="M0-Kgun3QGkn052MEf85">
    <mxGraphModel dx="885" dy="911" grid="1" gridSize="10" guides="1" tooltips="1" connect="1" arrows="1" fold="1" page="1" pageScale="1" pageWidth="827" pageHeight="1169" math="0" shadow="0">
      <root>
        <mxCell id="0" />
        <mxCell id="1" parent="0" />
        <mxCell id="lUrbyI4_LhIBm9ippBlA-1" value="0" style="whiteSpace=wrap;html=1;aspect=fixed;" vertex="1" parent="1">
          <mxGeometry x="60" y="370" width="80" height="80" as="geometry" />
        </mxCell>
        <mxCell id="lUrbyI4_LhIBm9ippBlA-2" value="1" style="whiteSpace=wrap;html=1;aspect=fixed;" vertex="1" parent="1">
          <mxGeometry x="140" y="370" width="80" height="80" as="geometry" />
        </mxCell>
        <mxCell id="lUrbyI4_LhIBm9ippBlA-3" value="2" style="whiteSpace=wrap;html=1;aspect=fixed;" vertex="1" parent="1">
          <mxGeometry x="620" y="370" width="80" height="80" as="geometry" />
        </mxCell>
        <mxCell id="lUrbyI4_LhIBm9ippBlA-4" value="0" style="whiteSpace=wrap;html=1;aspect=fixed;" vertex="1" parent="1">
          <mxGeometry x="460" y="370" width="80" height="80" as="geometry" />
        </mxCell>
        <mxCell id="lUrbyI4_LhIBm9ippBlA-5" value="2" style="whiteSpace=wrap;html=1;aspect=fixed;" vertex="1" parent="1">
          <mxGeometry x="300" y="370" width="80" height="80" as="geometry" />
        </mxCell>
        <mxCell id="lUrbyI4_LhIBm9ippBlA-6" value="4" style="whiteSpace=wrap;html=1;aspect=fixed;" vertex="1" parent="1">
          <mxGeometry x="540" y="370" width="80" height="80" as="geometry" />
        </mxCell>
        <mxCell id="lUrbyI4_LhIBm9ippBlA-7" value="3" style="whiteSpace=wrap;html=1;aspect=fixed;" vertex="1" parent="1">
          <mxGeometry x="380" y="370" width="80" height="80" as="geometry" />
        </mxCell>
        <mxCell id="lUrbyI4_LhIBm9ippBlA-8" value="2" style="whiteSpace=wrap;html=1;aspect=fixed;" vertex="1" parent="1">
          <mxGeometry x="220" y="370" width="80" height="80" as="geometry" />
        </mxCell>
        <mxCell id="lUrbyI4_LhIBm9ippBlA-10" value="" style="endArrow=classic;html=1;rounded=0;" edge="1" parent="1">
          <mxGeometry width="50" height="50" relative="1" as="geometry">
            <mxPoint x="100" y="510" as="sourcePoint" />
            <mxPoint x="100" y="450" as="targetPoint" />
          </mxGeometry>
        </mxCell>
        <mxCell id="lUrbyI4_LhIBm9ippBlA-11" value="" style="endArrow=classic;html=1;rounded=0;" edge="1" parent="1">
          <mxGeometry width="50" height="50" relative="1" as="geometry">
            <mxPoint x="270" y="510" as="sourcePoint" />
            <mxPoint x="270" y="450" as="targetPoint" />
          </mxGeometry>
        </mxCell>
        <mxCell id="lUrbyI4_LhIBm9ippBlA-23" value="0" style="whiteSpace=wrap;html=1;aspect=fixed;" vertex="1" parent="1">
          <mxGeometry x="60" y="620" width="80" height="80" as="geometry" />
        </mxCell>
        <mxCell id="lUrbyI4_LhIBm9ippBlA-24" value="0" style="whiteSpace=wrap;html=1;aspect=fixed;" vertex="1" parent="1">
          <mxGeometry x="140" y="620" width="80" height="80" as="geometry" />
        </mxCell>
        <mxCell id="lUrbyI4_LhIBm9ippBlA-25" value="1" style="whiteSpace=wrap;html=1;aspect=fixed;" vertex="1" parent="1">
          <mxGeometry x="220" y="620" width="80" height="80" as="geometry" />
        </mxCell>
        <mxCell id="lUrbyI4_LhIBm9ippBlA-26" value="2" style="whiteSpace=wrap;html=1;aspect=fixed;" vertex="1" parent="1">
          <mxGeometry x="380" y="620" width="80" height="80" as="geometry" />
        </mxCell>
        <mxCell id="lUrbyI4_LhIBm9ippBlA-27" value="2" style="whiteSpace=wrap;html=1;aspect=fixed;" vertex="1" parent="1">
          <mxGeometry x="300" y="620" width="80" height="80" as="geometry" />
        </mxCell>
        <mxCell id="lUrbyI4_LhIBm9ippBlA-28" value="2" style="whiteSpace=wrap;html=1;aspect=fixed;" vertex="1" parent="1">
          <mxGeometry x="460" y="620" width="80" height="80" as="geometry" />
        </mxCell>
        <mxCell id="lUrbyI4_LhIBm9ippBlA-29" value="3" style="whiteSpace=wrap;html=1;aspect=fixed;" vertex="1" parent="1">
          <mxGeometry x="540" y="620" width="80" height="80" as="geometry" />
        </mxCell>
        <mxCell id="lUrbyI4_LhIBm9ippBlA-30" value="4" style="whiteSpace=wrap;html=1;aspect=fixed;" vertex="1" parent="1">
          <mxGeometry x="620" y="620" width="80" height="80" as="geometry" />
        </mxCell>
        <mxCell id="lUrbyI4_LhIBm9ippBlA-31" value="" style="endArrow=classic;html=1;rounded=0;" edge="1" parent="1">
          <mxGeometry width="50" height="50" relative="1" as="geometry">
            <mxPoint x="499.5" y="760" as="sourcePoint" />
            <mxPoint x="499.5" y="700" as="targetPoint" />
          </mxGeometry>
        </mxCell>
        <mxCell id="lUrbyI4_LhIBm9ippBlA-32" value="" style="endArrow=classic;html=1;rounded=0;" edge="1" parent="1">
          <mxGeometry width="50" height="50" relative="1" as="geometry">
            <mxPoint x="339.5" y="760" as="sourcePoint" />
            <mxPoint x="339.5" y="700" as="targetPoint" />
          </mxGeometry>
        </mxCell>
        <mxCell id="lUrbyI4_LhIBm9ippBlA-33" value="2" style="whiteSpace=wrap;html=1;aspect=fixed;" vertex="1" parent="1">
          <mxGeometry x="150" y="890" width="80" height="80" as="geometry" />
        </mxCell>
        <mxCell id="lUrbyI4_LhIBm9ippBlA-34" value="3" style="whiteSpace=wrap;html=1;aspect=fixed;" vertex="1" parent="1">
          <mxGeometry x="230" y="890" width="80" height="80" as="geometry" />
        </mxCell>
        <mxCell id="lUrbyI4_LhIBm9ippBlA-35" value="2" style="whiteSpace=wrap;html=1;aspect=fixed;" vertex="1" parent="1">
          <mxGeometry x="70" y="890" width="80" height="80" as="geometry" />
        </mxCell>
        <mxCell id="lUrbyI4_LhIBm9ippBlA-37" value="3" style="whiteSpace=wrap;html=1;aspect=fixed;" vertex="1" parent="1">
          <mxGeometry x="310" y="890" width="80" height="80" as="geometry" />
        </mxCell>
        <mxCell id="lUrbyI4_LhIBm9ippBlA-38" value="" style="endArrow=classic;html=1;rounded=0;" edge="1" parent="1">
          <mxGeometry width="50" height="50" relative="1" as="geometry">
            <mxPoint x="189.5" y="1030" as="sourcePoint" />
            <mxPoint x="189.5" y="970" as="targetPoint" />
          </mxGeometry>
        </mxCell>
        <mxCell id="lUrbyI4_LhIBm9ippBlA-39" value="" style="endArrow=classic;html=1;rounded=0;" edge="1" parent="1">
          <mxGeometry width="50" height="50" relative="1" as="geometry">
            <mxPoint x="349.5" y="1040" as="sourcePoint" />
            <mxPoint x="349.5" y="980" as="targetPoint" />
          </mxGeometry>
        </mxCell>
      </root>
    </mxGraphModel>
  </diagram>
</mxfile>
